# xmcd
#
# Track frame offsets:
# 150
# 13877
# 29920
# 43040
# 59420
# 72245
# 87127
# 100075
# 111887
# 125392
# 141250
# 156725
# 171292
# 182195
#
# Disc length: 2584 seconds
#
# Revision: 1
# Processed by: cddbd v1.5.1PL0 Copyright (c) Steve Scherf et al.
# Submitted via: Easy CD Ripper v2.27
#
DISCID=d00a160e
DTITLE=Jair Rodrigues - Serestas and Serenatas
DYEAR=2002
DGENRE=Pop
TTITLE0=Folhas Mortas - Jair Rodrigues
TTITLE1=Lágrimas - Jair Rodrigues
TTITLE2=Molambo - Jair Rodrigues
TTITLE3=Pot-Pourri: As Três Lágrimas - Chuá, Chuá - Malandrinha - Jair Rodrigues
TTITLE4=Vingança - Jair Rodrigues
TTITLE5=Eu Sonhei que Tu Estavas Tão Linda - Jair Rodrigues
TTITLE6=Canção de Amor - Jair Rodrigues
TTITLE7=Rapaziada do Braz - Jair Rodrigues
TTITLE8=Patativa - Jair Rodrigues
TTITLE9=Revendo o Passado - Jair Rodrigues
TTITLE10=A Voz do Violão - Jair Rodrigues
TTITLE11=Cabelos Brancos - Jair Rodrigues
TTITLE12=Lábios que Beijei - Jair Rodrigues
TTITLE13=Carinhoso - Jair Rodrigues
EXTD=
EXTT0=
EXTT1=
EXTT2=
EXTT3=
EXTT4=
EXTT5=
EXTT6=
EXTT7=
EXTT8=
EXTT9=
EXTT10=
EXTT11=
EXTT12=
EXTT13=
PLAYORDER=
